<mxfile host="65bd71144e">
    <diagram id="seh-zVPHBeqwAnJbIoeG" name="Page-1">
        <mxGraphModel dx="1983" dy="1163" grid="1" gridSize="10" guides="1" tooltips="1" connect="1" arrows="1" fold="1" page="1" pageScale="1" pageWidth="2336" pageHeight="1654" math="0" shadow="0">
            <root>
                <mxCell id="0"/>
                <mxCell id="1" parent="0"/>
                <mxCell id="QVolkQGVExDV0HM2E0Vq-6" value="Users" style="swimlane;fontStyle=1;childLayout=stackLayout;horizontal=1;startSize=38;horizontalStack=0;resizeParent=1;resizeParentMax=0;resizeLast=0;collapsible=1;marginBottom=0;resizeHeight=1;resizeWidth=1;glass=0;rounded=0;comic=0;shadow=0;fontSize=16;align=center;" parent="1" vertex="1">
                    <mxGeometry x="880" y="720" width="200" height="240" as="geometry">
                        <mxRectangle x="310" y="290" width="50" height="26" as="alternateBounds"/>
                    </mxGeometry>
                </mxCell>
                <mxCell id="QVolkQGVExDV0HM2E0Vq-7" value="id&#10;failedSignInAttempts&#10;login&#10;recoveryAnswerHash&#10;recoveryQuestion&#10;createdAt&#10;updatedAt" style="text;align=left;verticalAlign=top;spacingLeft=4;spacingRight=4;overflow=hidden;rotatable=0;points=[[0,0.5],[1,0.5]];portConstraint=eastwest;fontSize=16;fillColor=none;" parent="QVolkQGVExDV0HM2E0Vq-6" vertex="1">
                    <mxGeometry y="38" width="200" height="202" as="geometry"/>
                </mxCell>
                <mxCell id="QVolkQGVExDV0HM2E0Vq-26" value="Secrets" style="swimlane;fontStyle=1;childLayout=stackLayout;horizontal=1;startSize=38;horizontalStack=0;resizeParent=1;resizeParentMax=0;resizeLast=0;collapsible=1;marginBottom=0;resizeHeight=1;resizeWidth=1;glass=0;rounded=0;comic=0;shadow=0;fontSize=16;align=center;" parent="1" vertex="1">
                    <mxGeometry x="1240" y="720" width="200" height="360" as="geometry">
                        <mxRectangle x="310" y="290" width="50" height="26" as="alternateBounds"/>
                    </mxGeometry>
                </mxCell>
                <mxCell id="QVolkQGVExDV0HM2E0Vq-27" value="id&#10;userId&#10;accountName&#10;algorithm&#10;authType&#10;counter&#10;digits&#10;entryId&#10;issuer&#10;period&#10;scannedAt&#10;secret&#10;synchronizedAt&#10;createdAt&#10;updatedAt" style="text;align=left;verticalAlign=top;spacingLeft=4;spacingRight=4;overflow=hidden;rotatable=0;points=[[0,0.5],[1,0.5]];portConstraint=eastwest;fontSize=16;fillColor=none;" parent="QVolkQGVExDV0HM2E0Vq-26" vertex="1">
                    <mxGeometry y="38" width="200" height="322" as="geometry"/>
                </mxCell>
                <mxCell id="QVolkQGVExDV0HM2E0Vq-28" value="" style="endArrow=open;endFill=1;endSize=12;html=1;fontSize=16;entryX=-0.007;entryY=0.085;entryDx=0;entryDy=0;entryPerimeter=0;" parent="1" target="QVolkQGVExDV0HM2E0Vq-7" edge="1">
                    <mxGeometry width="160" relative="1" as="geometry">
                        <mxPoint x="1240" y="795" as="sourcePoint"/>
                        <mxPoint x="800" y="770" as="targetPoint"/>
                        <Array as="points">
                            <mxPoint x="1160" y="795"/>
                            <mxPoint x="1160" y="1040"/>
                            <mxPoint x="800" y="1040"/>
                            <mxPoint x="800" y="775"/>
                        </Array>
                    </mxGeometry>
                </mxCell>
                <mxCell id="QVolkQGVExDV0HM2E0Vq-22" value="TokenSecrets" style="swimlane;fontStyle=1;childLayout=stackLayout;horizontal=1;startSize=38;horizontalStack=0;resizeParent=1;resizeParentMax=0;resizeLast=0;collapsible=1;marginBottom=0;resizeHeight=1;resizeWidth=1;glass=0;rounded=0;comic=0;shadow=0;fontSize=16;align=center;" parent="1" vertex="1">
                    <mxGeometry x="520" y="720" width="200" height="240" as="geometry">
                        <mxRectangle x="310" y="290" width="50" height="26" as="alternateBounds"/>
                    </mxGeometry>
                </mxCell>
                <mxCell id="QVolkQGVExDV0HM2E0Vq-23" value="id&#10;userId&#10;secret&#10;createdAt&#10;updatedAt" style="text;align=left;verticalAlign=top;spacingLeft=4;spacingRight=4;overflow=hidden;rotatable=0;points=[[0,0.5],[1,0.5]];portConstraint=eastwest;fontSize=16;fillColor=none;" parent="QVolkQGVExDV0HM2E0Vq-22" vertex="1">
                    <mxGeometry y="38" width="200" height="202" as="geometry"/>
                </mxCell>
                <mxCell id="QVolkQGVExDV0HM2E0Vq-30" value="" style="endArrow=none;html=1;edgeStyle=orthogonalEdgeStyle;fontSize=16;exitX=-0.003;exitY=0.178;exitDx=0;exitDy=0;exitPerimeter=0;" parent="1" source="QVolkQGVExDV0HM2E0Vq-23" edge="1">
                    <mxGeometry relative="1" as="geometry">
                        <mxPoint x="300" y="920" as="sourcePoint"/>
                        <mxPoint x="800" y="930" as="targetPoint"/>
                        <Array as="points">
                            <mxPoint x="440" y="794"/>
                            <mxPoint x="440" y="1040"/>
                            <mxPoint x="800" y="1040"/>
                        </Array>
                    </mxGeometry>
                </mxCell>
                <mxCell id="QVolkQGVExDV0HM2E0Vq-20" value="Passwords" style="swimlane;fontStyle=1;childLayout=stackLayout;horizontal=1;startSize=38;horizontalStack=0;resizeParent=1;resizeParentMax=0;resizeLast=0;collapsible=1;marginBottom=0;resizeHeight=1;resizeWidth=1;glass=0;rounded=0;comic=0;shadow=0;fontSize=16;align=center;" parent="1" vertex="1">
                    <mxGeometry x="880" y="400" width="200" height="240" as="geometry">
                        <mxRectangle x="310" y="290" width="50" height="26" as="alternateBounds"/>
                    </mxGeometry>
                </mxCell>
                <mxCell id="QVolkQGVExDV0HM2E0Vq-21" value="id&#10;userId&#10;hash&#10;createdAt&#10;updatedAt" style="text;align=left;verticalAlign=top;spacingLeft=4;spacingRight=4;overflow=hidden;rotatable=0;points=[[0,0.5],[1,0.5]];portConstraint=eastwest;fontSize=16;" parent="QVolkQGVExDV0HM2E0Vq-20" vertex="1">
                    <mxGeometry y="38" width="200" height="202" as="geometry"/>
                </mxCell>
                <mxCell id="QVolkQGVExDV0HM2E0Vq-36" value="" style="endArrow=none;html=1;edgeStyle=orthogonalEdgeStyle;fontSize=16;exitX=-0.001;exitY=0.181;exitDx=0;exitDy=0;exitPerimeter=0;" parent="1" source="QVolkQGVExDV0HM2E0Vq-21" edge="1">
                    <mxGeometry relative="1" as="geometry">
                        <mxPoint x="880" y="470" as="sourcePoint"/>
                        <mxPoint x="800" y="820" as="targetPoint"/>
                        <Array as="points">
                            <mxPoint x="800" y="475"/>
                        </Array>
                    </mxGeometry>
                </mxCell>
                <mxCell id="QVolkQGVExDV0HM2E0Vq-39" value="&lt;font style=&quot;font-size: 24px&quot;&gt;2FA database scheme&lt;/font&gt;" style="text;html=1;align=center;verticalAlign=middle;resizable=0;points=[];autosize=1;fontSize=16;" parent="1" vertex="1">
                    <mxGeometry x="495" y="400" width="250" height="30" as="geometry"/>
                </mxCell>
                <mxCell id="i9LFr71tnJbPSGoF-j6i-1" value="DeletedSecretIDs" style="swimlane;fontStyle=1;childLayout=stackLayout;horizontal=1;startSize=38;horizontalStack=0;resizeParent=1;resizeParentMax=0;resizeLast=0;collapsible=1;marginBottom=0;resizeHeight=1;resizeWidth=1;glass=0;rounded=0;comic=0;shadow=0;fontSize=16;align=center;fillColor=none;" parent="1" vertex="1">
                    <mxGeometry x="1240" y="400" width="200" height="240" as="geometry">
                        <mxRectangle x="310" y="290" width="50" height="26" as="alternateBounds"/>
                    </mxGeometry>
                </mxCell>
                <mxCell id="i9LFr71tnJbPSGoF-j6i-2" value="id&#10;userId&#10;entryId&#10;createdAt&#10;updatedAt" style="text;align=left;verticalAlign=top;spacingLeft=4;spacingRight=4;overflow=hidden;rotatable=0;points=[[0,0.5],[1,0.5]];portConstraint=eastwest;fontSize=16;" parent="i9LFr71tnJbPSGoF-j6i-1" vertex="1">
                    <mxGeometry y="38" width="200" height="202" as="geometry"/>
                </mxCell>
                <mxCell id="i9LFr71tnJbPSGoF-j6i-4" value="" style="endArrow=classic;html=1;rounded=1;entryX=-0.002;entryY=0.056;entryDx=0;entryDy=0;entryPerimeter=0;exitX=-0.004;exitY=0.273;exitDx=0;exitDy=0;exitPerimeter=0;" parent="1" source="i9LFr71tnJbPSGoF-j6i-2" target="QVolkQGVExDV0HM2E0Vq-27" edge="1">
                    <mxGeometry width="50" height="50" relative="1" as="geometry">
                        <mxPoint x="1220" y="450" as="sourcePoint"/>
                        <mxPoint x="1180" y="640" as="targetPoint"/>
                        <Array as="points">
                            <mxPoint x="1200" y="493"/>
                            <mxPoint x="1200" y="775"/>
                        </Array>
                    </mxGeometry>
                </mxCell>
                <mxCell id="i9LFr71tnJbPSGoF-j6i-5" value="" style="endArrow=none;html=1;rounded=1;entryX=-0.005;entryY=0.182;entryDx=0;entryDy=0;entryPerimeter=0;" parent="1" target="i9LFr71tnJbPSGoF-j6i-2" edge="1">
                    <mxGeometry width="50" height="50" relative="1" as="geometry">
                        <mxPoint x="1160" y="920.4000244140625" as="sourcePoint"/>
                        <mxPoint x="1190" y="460" as="targetPoint"/>
                        <Array as="points">
                            <mxPoint x="1160" y="475"/>
                        </Array>
                    </mxGeometry>
                </mxCell>
            </root>
        </mxGraphModel>
    </diagram>
</mxfile>